<?xml version="1.0" encoding="utf-8"?>
<!-- Generator: Adobe Illustrator 30.1.0, SVG Export Plug-In . SVG Version: 9.03 Build 0)  -->
<svg version="1.0" id="Layer_1" xmlns="http://www.w3.org/2000/svg" xmlns:xlink="http://www.w3.org/1999/xlink" x="0px" y="0px"
	 viewBox="0 0 1080 1080" style="enable-background:new 0 0 1080 1080;" xml:space="preserve">
<style type="text/css">
	.st0{fill:#F1ECC1;}
	.st1{fill:#35683A;}
</style>
<rect class="st0" width="1080" height="1080"/>
<path class="st1" d="M759.9,181H194.4v498.1c53.2,4.3,105,7.7,154.7,9.8c55.2,2.4,109.4,3.6,162.6,3.6c115.1,0,208.4-3.1,279.9-9.4
	l-32.4-80.3l92.8-44.6c9.8,57.1,10.8,109.4,2.9,156.6c-7.9,42-18.7,69.3-32.9,82.3c-46.5,7.4-93.8,12.9-141.5,16.5
	c-49.6,3.6-106,5.3-169.1,5.3c-49.4,0-97.8-0.7-145.6-2.4c-47.7-1.7-95-3.8-142-7c-8.2-0.5-16.3-1.4-24.5-2.2
	c14.9,52.8,63.1,91.6,120.6,91.6h565.5V306.9C885.8,237.4,829.5,181,759.9,181z M688.7,610.7l-45.6-45.6l-45.6,45.6L544.8,558
	l52.8-52.8l45.6,45.6l45.6-45.6l52.8,52.8L688.7,610.7z"/>
</svg>
